<?xml version="1.0" encoding="UTF-8"?><svg id="Layer_1" xmlns="http://www.w3.org/2000/svg" viewBox="0 0 378.78 564.02"><defs><style>.cls-1{fill:#231f20;}</style></defs><path class="cls-1" d="M345.15,21.95c-49.94-16.25-111.9,33.34-131.55,44.8-19.65,11.46-67.13,30.6-88.28,7.68,51.71,87.3,183.62-81.42,221.46,8.99,20.47,48.88-20.74,92.8-6.43,128.35,20.12-41.89,72.68-167.84,4.8-189.82Z"/><path class="cls-1" d="M206.01,43.24C150.45,7.67,67.16-22.43,23.57,22.86c-67.84,70.5,31.39,154.9,40.63,234.65,10.9,94.07-66.51,265.33,37.62,306.51-35.84-52.1-37.48-91.56-28.91-163.22,8.41-70.16,50.25-112.84,34.55-180.42-10.76-46.19-63.29-93.63-57.71-136.75,7.84-60.52,105.33-62.45,156.25-40.39Z"/><path class="cls-1" d="M200.17,267.41c-34.6,.35-111.01,154.64-91.91,294.1,0,0,38.22-233.46,98.06-250.91,24.01-7,51.16,59.25,51.82,76.33,24.42-54.24-24.54-119.87-57.97-119.53Z"/></svg>